<svg id="Layer_1" data-name="Layer 1" xmlns="http://www.w3.org/2000/svg" viewBox="0 0 146.08 31.97"><title>logo</title><circle cx="101.12" cy="10.63" r="1.33" style="fill:#aea299"/><path d="M81.38,6A7.19,7.19,0,1,0,84.5,19.6,1.47,1.47,0,0,0,85,19.15a1.37,1.37,0,0,0-.38-1.87,1.27,1.27,0,0,0-1.29-.1L83,17.32a3.32,3.32,0,0,1-.54.19,4.85,4.85,0,0,1-1.14.16,4.49,4.49,0,0,1-4.26-3.2H87.32a1.27,1.27,0,0,0,1.22-1.29A7.2,7.2,0,0,0,81.38,6Zm-4.32,5.92a4.51,4.51,0,0,1,4.32-3.25,4.57,4.57,0,0,1,4.32,3.25H77.06Z" transform="translate(-3.11 -2.52)" style="fill:#e26a2a"/><path d="M120.54,20.39a1.29,1.29,0,0,1-1.34-1.34V13.32a4.49,4.49,0,1,0-9,0V19a1.34,1.34,0,0,1-2.67,0V13.32a7.16,7.16,0,1,1,14.33,0v5.73A1.29,1.29,0,0,1,120.54,20.39Z" transform="translate(-3.11 -2.52)" style="fill:#aea299"/><path d="M130.06,6a7.19,7.19,0,1,0,3.12,13.64,1.47,1.47,0,0,0,.53-0.44,1.37,1.37,0,0,0-.38-1.87,1.27,1.27,0,0,0-1.29-.1l-0.34.13a3.3,3.3,0,0,1-.54.19,4.86,4.86,0,0,1-1.14.16,4.49,4.49,0,0,1-4.26-3.2H136a1.27,1.27,0,0,0,1.22-1.29A7.2,7.2,0,0,0,130.06,6Zm-4.32,5.92a4.51,4.51,0,0,1,4.32-3.25,4.57,4.57,0,0,1,4.32,3.25h-8.63Z" transform="translate(-3.11 -2.52)" style="fill:#aea299"/><path d="M148.59,17.34a1.27,1.27,0,0,0-1.29-.1l-0.34.13a3.29,3.29,0,0,1-.54.19,4.88,4.88,0,0,1-1.14.16,4.48,4.48,0,0,1-4.44-4.49V9.31h4.92A1.29,1.29,0,0,0,147.09,8a1.29,1.29,0,0,0-1.34-1.34h-4.92V3.85a1.34,1.34,0,1,0-2.67,0v9.37a7.14,7.14,0,0,0,7.11,7.16,7.26,7.26,0,0,0,3.17-.73,1.47,1.47,0,0,0,.53-0.44A1.37,1.37,0,0,0,148.59,17.34Z" transform="translate(-3.11 -2.52)" style="fill:#aea299"/><path d="M45.84,20.39a1.29,1.29,0,0,1-1.34-1.34V13.32a4.49,4.49,0,1,0-9,0V19a1.34,1.34,0,0,1-2.67,0V13.32a7.16,7.16,0,1,1,14.33,0v5.73A1.29,1.29,0,0,1,45.84,20.39Z" transform="translate(-3.11 -2.52)" style="fill:#e26a2a"/><path d="M55.32,6a7.19,7.19,0,1,0,3.12,13.64A1.47,1.47,0,0,0,59,19.21a1.37,1.37,0,0,0-.38-1.87,1.27,1.27,0,0,0-1.29-.1L57,17.37a3.3,3.3,0,0,1-.54.19,4.86,4.86,0,0,1-1.14.16A4.49,4.49,0,0,1,51,14.51H61.26a1.27,1.27,0,0,0,1.22-1.29A7.2,7.2,0,0,0,55.32,6ZM51,11.94a4.51,4.51,0,0,1,4.32-3.25,4.57,4.57,0,0,1,4.32,3.25H51Z" transform="translate(-3.11 -2.52)" style="fill:#e26a2a"/><path d="M73.84,17.34a1.27,1.27,0,0,0-1.29-.1l-0.34.13a3.29,3.29,0,0,1-.54.19,4.88,4.88,0,0,1-1.14.16,4.48,4.48,0,0,1-4.44-4.49V9.31H71A1.29,1.29,0,0,0,72.34,8,1.29,1.29,0,0,0,71,6.64H66.08V3.85a1.34,1.34,0,1,0-2.67,0v9.37a7.14,7.14,0,0,0,7.11,7.16,7.26,7.26,0,0,0,3.17-.73,1.47,1.47,0,0,0,.53-0.44A1.37,1.37,0,0,0,73.84,17.34Z" transform="translate(-3.11 -2.52)" style="fill:#e26a2a"/><path d="M24.72,6a7.19,7.19,0,1,0,3.12,13.64,1.47,1.47,0,0,0,.53-0.44A1.37,1.37,0,0,0,28,17.34a1.27,1.27,0,0,0-1.29-.1l-0.34.13a3.3,3.3,0,0,1-.54.19,4.86,4.86,0,0,1-1.14.16,4.49,4.49,0,0,1-4.26-3.2H30.67a1.27,1.27,0,0,0,1.22-1.29A7.2,7.2,0,0,0,24.72,6Zm-4.32,5.92a4.51,4.51,0,0,1,4.32-3.25A4.57,4.57,0,0,1,29,11.94H20.41Z" transform="translate(-3.11 -2.52)" style="fill:#e26a2a"/><path d="M102.86,17.89l-4.78-4.75h0l4.66-4.63a1.57,1.57,0,0,0,0-2.11,1.57,1.57,0,0,0-2-.06L96,11.09l-4.7-4.73a1.57,1.57,0,0,0-2,.06,1.57,1.57,0,0,0,0,2.11L94,13.15h0l-4.78,4.75a1.48,1.48,0,0,0,2.16,2L96,15.21l4.67,4.7A1.48,1.48,0,0,0,102.86,17.89Z" transform="translate(-3.11 -2.52)" style="fill:#e26a2a;fill-rule:evenodd"/><path d="M10.31,20.33a3.28,3.28,0,0,1-3.08-2l-4-10.43a1.47,1.47,0,0,1-.1-0.52A1.36,1.36,0,0,1,4.51,6a1.28,1.28,0,0,1,1.23.87l4,10.43a0.64,0.64,0,0,0,1.12,0l4-10.43A1.28,1.28,0,0,1,16.11,6,1.34,1.34,0,0,1,17.5,7.33a1.48,1.48,0,0,1-.1.53l-4,10.43A3.28,3.28,0,0,1,10.31,20.33Z" transform="translate(-3.11 -2.52)" style="fill:#e26a2a"/><path d="M6.39,34.48a3.09,3.09,0,1,1,0-6.18,0.43,0.43,0,0,1,0,.85,2.24,2.24,0,0,0,0,4.47,0.41,0.41,0,0,1,.43.43A0.41,0.41,0,0,1,6.39,34.48Z" transform="translate(-3.11 -2.52)" style="fill:#aea299"/><path d="M8.42,27.72a0.52,0.52,0,1,1,.51-0.52A0.52,0.52,0,0,1,8.42,27.72Zm0,6.71A0.41,0.41,0,0,1,8,34V28.78a0.41,0.41,0,0,1,.43-0.43,0.4,0.4,0,0,1,.43.43V34A0.39,0.39,0,0,1,8.42,34.43Z" transform="translate(-3.11 -2.52)" style="fill:#aea299"/><path d="M11.89,29.16a0.9,0.9,0,0,0-.91.91v4a0.43,0.43,0,1,1-.85,0v-4a1.76,1.76,0,0,1,1.76-1.76A0.43,0.43,0,0,1,11.89,29.16Z" transform="translate(-3.11 -2.52)" style="fill:#aea299"/><path d="M15.77,34.48a3.09,3.09,0,0,1,0-6.18,0.43,0.43,0,0,1,0,.85,2.24,2.24,0,1,0,0,4.47,0.41,0.41,0,0,1,.43.43A0.41,0.41,0,0,1,15.77,34.48Z" transform="translate(-3.11 -2.52)" style="fill:#aea299"/><path d="M20.35,34.48a3.09,3.09,0,0,1-3.09-3.09V28.78a0.43,0.43,0,0,1,.85,0v2.61a2.24,2.24,0,0,0,4.47,0V28.8a0.43,0.43,0,1,1,.85,0v2.6A3.09,3.09,0,0,1,20.35,34.48Z" transform="translate(-3.11 -2.52)" style="fill:#aea299"/><path d="M25.05,27.72a0.52,0.52,0,1,1,.51-0.52A0.52,0.52,0,0,1,25.05,27.72Zm0,6.71A0.41,0.41,0,0,1,24.62,34V28.78A0.41,0.41,0,0,1,25,28.36a0.4,0.4,0,0,1,.43.43V34A0.39,0.39,0,0,1,25.05,34.43Z" transform="translate(-3.11 -2.52)" style="fill:#aea299"/><path d="M28.67,29.32H27.61v3.41a0.9,0.9,0,0,0,.91.91,0.43,0.43,0,0,1,0,.85,1.76,1.76,0,0,1-1.76-1.76V27a0.43,0.43,0,1,1,.85,0v1.46h1.07A0.43,0.43,0,0,1,28.67,29.32Z" transform="translate(-3.11 -2.52)" style="fill:#aea299"/><path d="M32.77,34.48a3.09,3.09,0,1,1,3.09-3.09A3.09,3.09,0,0,1,32.77,34.48Zm0-5.33A2.24,2.24,0,1,0,35,31.39,2.24,2.24,0,0,0,32.77,29.16Z" transform="translate(-3.11 -2.52)" style="fill:#aea299"/><path d="M42.63,34.48a3.09,3.09,0,0,1,0-6.18,3,3,0,0,1,1.6.45,0.4,0.4,0,0,1,.21.35,0.45,0.45,0,0,1-.43.45,0.5,0.5,0,0,1-.23-0.07,2.28,2.28,0,0,0-1.15-.32,2.24,2.24,0,1,0,2.24,2.24V26.94a0.41,0.41,0,0,1,.43-0.43,0.41,0.41,0,0,1,.43.43v4.45A3.09,3.09,0,0,1,42.63,34.48Z" transform="translate(-3.11 -2.52)" style="fill:#aea299"/><path d="M47.33,27.72a0.52,0.52,0,1,1,.51-0.52A0.52,0.52,0,0,1,47.33,27.72Zm0,6.71A0.41,0.41,0,0,1,46.89,34V28.78a0.41,0.41,0,0,1,.43-0.43,0.4,0.4,0,0,1,.43.43V34A0.39,0.39,0,0,1,47.33,34.43Z" transform="translate(-3.11 -2.52)" style="fill:#aea299"/><path d="M54.78,34.48a3.09,3.09,0,0,1,0-6.18,0.43,0.43,0,0,1,0,.85,2.24,2.24,0,0,0,0,4.47,0.41,0.41,0,0,1,.43.43A0.41,0.41,0,0,1,54.78,34.48Z" transform="translate(-3.11 -2.52)" style="fill:#aea299"/><path d="M58.14,29.16a0.9,0.9,0,0,0-.91.91v4a0.43,0.43,0,1,1-.85,0v-4a1.76,1.76,0,0,1,1.76-1.76A0.43,0.43,0,0,1,58.14,29.16Z" transform="translate(-3.11 -2.52)" style="fill:#aea299"/><path d="M64.74,31.8H59.82A2.24,2.24,0,0,0,62,33.63a2.26,2.26,0,0,0,1.72-.8A3.77,3.77,0,0,0,64,32.47a0.4,0.4,0,0,1,.36-0.22,0.44,0.44,0,0,1,.45.42,0.5,0.5,0,0,1-.06.22A3.13,3.13,0,0,1,62,34.48a3.1,3.1,0,1,1,3.11-3.09A0.4,0.4,0,0,1,64.74,31.8ZM62,29.14A2.25,2.25,0,0,0,59.82,31h4.41A2.27,2.27,0,0,0,62,29.14Z" transform="translate(-3.11 -2.52)" style="fill:#aea299"/><path d="M69,34.48a3.09,3.09,0,1,1,0-6.18,3,3,0,0,1,1.6.45,0.4,0.4,0,0,1,.21.35,0.45,0.45,0,0,1-.43.45,0.5,0.5,0,0,1-.23-0.07A2.28,2.28,0,0,0,69,29.16a2.24,2.24,0,1,0,2.24,2.24V26.94a0.41,0.41,0,0,1,.43-0.43,0.41,0.41,0,0,1,.43.43v4.45A3.09,3.09,0,0,1,69,34.48Z" transform="translate(-3.11 -2.52)" style="fill:#aea299"/><path d="M73.65,27.72a0.52,0.52,0,1,1,.51-0.52A0.52,0.52,0,0,1,73.65,27.72Zm0,6.71A0.41,0.41,0,0,1,73.21,34V28.78a0.41,0.41,0,0,1,.43-0.43,0.4,0.4,0,0,1,.43.43V34A0.39,0.39,0,0,1,73.65,34.43Z" transform="translate(-3.11 -2.52)" style="fill:#aea299"/><path d="M77.27,29.32H76.21v3.41a0.9,0.9,0,0,0,.91.91,0.43,0.43,0,0,1,0,.85,1.76,1.76,0,0,1-1.76-1.76V27a0.43,0.43,0,1,1,.85,0v1.46h1.07A0.43,0.43,0,1,1,77.27,29.32Z" transform="translate(-3.11 -2.52)" style="fill:#aea299"/><path d="M81.37,34.48a3.09,3.09,0,1,1,3.09-3.09A3.09,3.09,0,0,1,81.37,34.48Zm0-5.33a2.24,2.24,0,1,0,2.24,2.24A2.24,2.24,0,0,0,81.37,29.16Z" transform="translate(-3.11 -2.52)" style="fill:#aea299"/><path d="M91.23,34.48a3.09,3.09,0,1,1,0-6.18,0.43,0.43,0,0,1,0,.85,2.24,2.24,0,1,0,0,4.47,0.41,0.41,0,0,1,.43.43A0.41,0.41,0,0,1,91.23,34.48Z" transform="translate(-3.11 -2.52)" style="fill:#aea299"/><path d="M95.22,34.48a3.09,3.09,0,1,1,3.09-3.09A3.09,3.09,0,0,1,95.22,34.48Zm0-5.33a2.24,2.24,0,1,0,2.24,2.24A2.24,2.24,0,0,0,95.22,29.16Z" transform="translate(-3.11 -2.52)" style="fill:#aea299"/><path d="M106.8,34.43a0.41,0.41,0,0,1-.43-0.43V30.51a1.35,1.35,0,1,0-2.71,0V34a0.41,0.41,0,0,1-.43.43,0.41,0.41,0,0,1-.43-0.43V30.51a1.35,1.35,0,1,0-2.7,0V34a0.43,0.43,0,0,1-.85,0V30.51a2.2,2.2,0,0,1,4-1.3,2.2,2.2,0,0,1,4,1.3V34A0.41,0.41,0,0,1,106.8,34.43Z" transform="translate(-3.11 -2.52)" style="fill:#aea299"/><path d="M115.93,34.43A0.41,0.41,0,0,1,115.5,34V30.51a1.35,1.35,0,1,0-2.71,0V34a0.41,0.41,0,0,1-.43.43,0.41,0.41,0,0,1-.43-0.43V30.51a1.35,1.35,0,1,0-2.7,0V34a0.43,0.43,0,0,1-.85,0V30.51a2.2,2.2,0,0,1,4-1.3,2.2,2.2,0,0,1,4,1.3V34A0.41,0.41,0,0,1,115.93,34.43Z" transform="translate(-3.11 -2.52)" style="fill:#aea299"/><path d="M123.12,31.8H118.2a2.24,2.24,0,0,0,2.18,1.83,2.26,2.26,0,0,0,1.72-.8,3.77,3.77,0,0,0,.26-0.36,0.4,0.4,0,0,1,.36-0.22,0.44,0.44,0,0,1,.45.42,0.5,0.5,0,0,1-.06.22,3.13,3.13,0,0,1-2.72,1.6,3.1,3.1,0,1,1,3.11-3.09A0.4,0.4,0,0,1,123.12,31.8Zm-2.72-2.66A2.25,2.25,0,0,0,118.2,31h4.41A2.27,2.27,0,0,0,120.41,29.14Z" transform="translate(-3.11 -2.52)" style="fill:#aea299"/><path d="M126.26,29.16a0.9,0.9,0,0,0-.91.91v4a0.43,0.43,0,1,1-.85,0v-4a1.76,1.76,0,0,1,1.76-1.76A0.43,0.43,0,1,1,126.26,29.16Z" transform="translate(-3.11 -2.52)" style="fill:#aea299"/><path d="M130.15,34.48a3.09,3.09,0,1,1,0-6.18,0.43,0.43,0,0,1,0,.85,2.24,2.24,0,1,0,0,4.47,0.41,0.41,0,0,1,.43.43A0.41,0.41,0,0,1,130.15,34.48Z" transform="translate(-3.11 -2.52)" style="fill:#aea299"/><path d="M132.19,27.72a0.52,0.52,0,1,1,.51-0.52A0.52,0.52,0,0,1,132.19,27.72Zm0,6.71a0.41,0.41,0,0,1-.44-0.43V28.78a0.41,0.41,0,0,1,.43-0.43,0.4,0.4,0,0,1,.43.43V34A0.39,0.39,0,0,1,132.19,34.43Z" transform="translate(-3.11 -2.52)" style="fill:#aea299"/><path d="M139.38,34.43A0.41,0.41,0,0,1,139,34V31.39a2.24,2.24,0,1,0-2.24,2.24,2.28,2.28,0,0,0,1.15-.32,0.5,0.5,0,0,1,.23-0.07,0.45,0.45,0,0,1,.43.45,0.4,0.4,0,0,1-.21.35,3,3,0,0,1-1.6.45,3.09,3.09,0,1,1,3.09-3.09V34A0.41,0.41,0,0,1,139.38,34.43Z" transform="translate(-3.11 -2.52)" style="fill:#aea299"/><path d="M141.4,34.43A0.41,0.41,0,0,1,141,34V27a0.41,0.41,0,0,1,.43-0.43,0.41,0.41,0,0,1,.43.43v7A0.41,0.41,0,0,1,141.4,34.43Z" transform="translate(-3.11 -2.52)" style="fill:#aea299"/><path d="M148.65,31.8h-4.92a2.24,2.24,0,0,0,2.18,1.83,2.26,2.26,0,0,0,1.72-.8,3.77,3.77,0,0,0,.26-0.36,0.4,0.4,0,0,1,.36-0.22,0.44,0.44,0,0,1,.45.42,0.5,0.5,0,0,1-.06.22,3.13,3.13,0,0,1-2.72,1.6A3.1,3.1,0,1,1,149,31.39,0.4,0.4,0,0,1,148.65,31.8Zm-2.72-2.66A2.25,2.25,0,0,0,143.72,31h4.41A2.27,2.27,0,0,0,145.93,29.14Z" transform="translate(-3.11 -2.52)" style="fill:#aea299"/></svg>