<?xml version="1.0" encoding="utf-8"?>
<!-- Generator: Adobe Illustrator 25.4.1, SVG Export Plug-In . SVG Version: 6.00 Build 0)  -->
<svg version="1.1" id="Layer_1" xmlns="http://www.w3.org/2000/svg" xmlns:xlink="http://www.w3.org/1999/xlink" x="0px" y="0px"
	 viewBox="0 0 76.83 20.5" style="enable-background:new 0 0 76.83 20.5;" xml:space="preserve">
<style type="text/css">
	.st0{fill:#575756;}
</style>
<path class="st0" d="M0,0.11V2.3l1.54,1.54l3.27,3.27L5.4,6.52l0.51-0.5L8,3.92v6.94h1.54V0.19L4.81,4.92L0,0.11L0,0.11z M0,10.86
	h1.54V4.93L0,3.39V10.86L0,10.86z M31.36,6.06c0,1.74-1.37,3.17-3.11,3.24h-0.23c-1.74-0.07-3.11-1.5-3.11-3.24V0.15h-1.54v6.8
	c0,0.81,0.3,1.59,0.84,2.18c0.21,0.23,0.45,0.44,0.7,0.64c1.91,1.45,4.56,1.45,6.47,0c0.25-0.19,0.48-0.4,0.7-0.63
	c0.54-0.6,0.84-1.38,0.83-2.18V0.15h-1.54L31.36,6.06L31.36,6.06z M34.44,10.86h1.54V4.95L34.44,3.4V10.86L34.44,10.86z M41.39,7.08
	l-6.95-6.95v2.18l1.54,1.54l5.41,5.41l1.54,1.54V0.15h-1.54V7.08L41.39,7.08z M48.39,10.86h1.54V2.47h-1.54V10.86L48.39,10.86z
	 M44.47,1.7h9.55V0.16h-9.55V1.7L44.47,1.7z M57.28,5.88h6.88V4.35h-6.88V2.47h-1.54v8.39h9.46V9.31h-7.92V5.88L57.28,5.88z
	 M55.74,1.7h9.46V0.16h-9.46V1.7L55.74,1.7z M72.75,5.32l0.14-0.19l3.66-4.97h-1.92l-2.7,3.67l-0.14,0.19l-0.14-0.19l-2.7-3.67
	h-1.92l3.66,4.97l0.14,0.19l0.96,1.3l3.12,4.24h1.92L72.75,5.32L72.75,5.32z M66.75,10.86h1.92l2.65-3.59l-0.96-1.3L66.75,10.86
	L66.75,10.86z M17.76,0.11c-0.12-0.02-0.24-0.04-0.36-0.05c-0.12,0-0.24-0.02-0.35-0.03L16.62,0v11.27l0.43-0.02
	c0.11,0,0.24-0.01,0.35-0.03c0.12-0.01,0.24-0.03,0.36-0.05l0.34-0.06V6.4V5.11V4.95V1.69c2.18,0.74,3.34,3.12,2.6,5.3
	c-0.31,0.92-0.93,1.7-1.76,2.2l-0.19,0.12v1.63l0.59-0.31c0.51-0.27,0.98-0.61,1.38-1.01c2.2-2.2,2.2-5.75,0-7.95
	C19.91,0.85,18.88,0.31,17.76,0.11L17.76,0.11z M15.34,0.05c-0.12,0.01-0.24,0.03-0.36,0.05c-2.67,0.49-4.61,2.82-4.61,5.53
	c0,2.1,1.17,4.03,3.03,5l0.59,0.31V9.31l-0.19-0.12c-1.96-1.21-2.57-3.78-1.35-5.74c0.51-0.82,1.29-1.45,2.21-1.76v3.26v1.28V6.4
	v4.71l0.34,0.06c0.12,0.02,0.24,0.04,0.36,0.05c0.12,0.01,0.24,0.02,0.35,0.03l0.43,0.02V0l-0.43,0.02
	C15.57,0.03,15.45,0.04,15.34,0.05L15.34,0.05z"/>
<path class="st0" d="M0.43,15.34v3.78h1.73V18.8H0.81v-3.47H0.43L0.43,15.34z M2.53,17.63c0,0.92,0.6,1.52,1.4,1.52
	c0.59,0,1-0.32,1.17-0.7v0.65h0.38v-2.95H5.11v0.65c-0.17-0.37-0.57-0.69-1.17-0.69C3.13,16.12,2.53,16.71,2.53,17.63L2.53,17.63z
	 M5.11,17.64c0,0.73-0.49,1.19-1.1,1.19c-0.62,0-1.1-0.45-1.1-1.19c0-0.75,0.48-1.18,1.1-1.18C4.62,16.45,5.11,16.9,5.11,17.64
	L5.11,17.64z M7.48,16.16l1.18,2.95h0.43l1.18-2.95h-0.4l-0.99,2.58l-0.99-2.58H7.48L7.48,16.16z M10.61,17.63
	c0,0.92,0.6,1.52,1.4,1.52c0.59,0,1-0.32,1.17-0.7v0.65h0.38v-2.95h-0.38v0.65c-0.17-0.37-0.57-0.69-1.17-0.69
	C11.21,16.12,10.61,16.71,10.61,17.63L10.61,17.63z M13.19,17.64c0,0.73-0.49,1.19-1.1,1.19c-0.62,0-1.1-0.45-1.1-1.19
	c0-0.75,0.48-1.18,1.1-1.18C12.69,16.45,13.19,16.9,13.19,17.64L13.19,17.64z M14.43,19.11h0.38v-4h-0.38V19.11L14.43,19.11z
	 M18.22,16.16h-0.38v1.6c0,0.72-0.38,1.06-0.93,1.06c-0.54,0-0.9-0.33-0.9-0.99v-1.68h-0.37v1.72c0,0.86,0.53,1.27,1.2,1.27
	c0.44,0,0.83-0.19,1-0.57v0.52h0.38V16.16L18.22,16.16z M19.19,18.31c0,0.59,0.28,0.8,0.79,0.8h0.41v-0.32h-0.35
	c-0.34,0-0.46-0.11-0.46-0.48v-1.83h0.81v-0.32h-0.81v-0.74h-0.38v0.74h-0.41v0.32h0.41V18.31L19.19,18.31z M20.83,17.63
	c0,0.92,0.6,1.52,1.4,1.52c0.59,0,1-0.32,1.17-0.7v0.65h0.38v-2.95h-0.38v0.65c-0.17-0.37-0.57-0.69-1.17-0.69
	C21.43,16.12,20.83,16.71,20.83,17.63L20.83,17.63z M23.41,17.64c0,0.73-0.49,1.19-1.1,1.19c-0.62,0-1.1-0.45-1.1-1.19
	c0-0.75,0.48-1.18,1.1-1.18C22.92,16.45,23.41,16.9,23.41,17.64L23.41,17.64z M26.51,17.46c0-0.74,0.42-0.96,0.91-0.96h0.1v-0.39
	c-0.51,0-0.85,0.22-1.01,0.58v-0.52h-0.38v2.95h0.38V17.46L26.51,17.46z M29.35,16.44c0.55,0,1.04,0.35,1.03,1.03H28.3
	C28.34,16.79,28.81,16.44,29.35,16.44L29.35,16.44z M30.71,18.18h-0.4c-0.11,0.39-0.45,0.66-0.95,0.66c-0.55,0-1.03-0.36-1.06-1.05
	h2.45c0.01-0.1,0.01-0.18,0.01-0.3c0-0.75-0.53-1.37-1.39-1.37c-0.85,0-1.45,0.58-1.45,1.52c0,0.93,0.61,1.52,1.45,1.52
	C30.1,19.15,30.58,18.73,30.71,18.18L30.71,18.18z M31.27,17.63c0,0.92,0.6,1.52,1.41,1.52c0.58,0,0.99-0.32,1.17-0.7v0.73
	c0,0.67-0.44,1.04-1,1.04c-0.54,0-0.91-0.28-1.04-0.68h-0.37c0.12,0.62,0.65,1,1.41,1c0.81,0,1.38-0.55,1.38-1.37v-3.02h-0.38v0.64
	c-0.17-0.37-0.58-0.69-1.17-0.69C31.87,16.12,31.27,16.71,31.27,17.63L31.27,17.63z M33.85,17.64c0,0.73-0.49,1.19-1.1,1.19
	c-0.62,0-1.1-0.45-1.1-1.19c0-0.75,0.48-1.18,1.1-1.18C33.36,16.45,33.85,16.9,33.85,17.64L33.85,17.64z M35.09,19.11h0.38v-2.95
	h-0.38V19.11L35.09,19.11z M35.28,15.61c0.15,0,0.28-0.12,0.28-0.28c0-0.16-0.12-0.28-0.28-0.28c-0.15,0-0.28,0.11-0.28,0.28
	C35,15.49,35.13,15.61,35.28,15.61L35.28,15.61z M39.1,17.64c0-0.94-0.64-1.52-1.47-1.52c-0.83,0-1.47,0.58-1.47,1.52
	c0,0.93,0.63,1.52,1.46,1.52C38.45,19.15,39.1,18.57,39.1,17.64L39.1,17.64z M36.54,17.64c0-0.81,0.52-1.19,1.09-1.19
	c0.56,0,1.09,0.38,1.09,1.19c0,0.81-0.54,1.19-1.1,1.19C37.06,18.83,36.54,18.45,36.54,17.64L36.54,17.64z M42,19.11h0.37v-1.73
	c0-0.86-0.53-1.27-1.2-1.27c-0.44,0-0.82,0.19-1,0.56v-0.5H39.8v2.95h0.38V17.5c0-0.72,0.38-1.06,0.93-1.06
	c0.54,0,0.9,0.33,0.9,0.99V19.11L42,19.11z M43.04,17.63c0,0.92,0.6,1.52,1.4,1.52c0.59,0,1-0.32,1.17-0.7v0.65H46v-2.95h-0.38v0.65
	c-0.17-0.37-0.57-0.69-1.17-0.69C43.64,16.12,43.04,16.71,43.04,17.63L43.04,17.63z M45.62,17.64c0,0.73-0.49,1.19-1.1,1.19
	c-0.62,0-1.1-0.45-1.1-1.19c0-0.75,0.48-1.18,1.1-1.18C45.13,16.45,45.62,16.9,45.62,17.64L45.62,17.64z M46.86,19.11h0.38v-4h-0.38
	V19.11L46.86,19.11z M49.35,16.44c0.55,0,1.04,0.35,1.03,1.03h-2.07C48.35,16.79,48.82,16.44,49.35,16.44L49.35,16.44z M50.72,18.18
	h-0.4c-0.11,0.39-0.45,0.66-0.95,0.66c-0.55,0-1.03-0.36-1.06-1.05h2.45c0.01-0.1,0.01-0.18,0.01-0.3c0-0.75-0.53-1.37-1.39-1.37
	c-0.85,0-1.45,0.58-1.45,1.52c0,0.93,0.61,1.52,1.45,1.52C50.11,19.15,50.59,18.73,50.72,18.18L50.72,18.18z M52.76,17.63
	c0,0.92,0.6,1.52,1.41,1.52c0.58,0,0.99-0.31,1.17-0.7v0.66h0.38v-4h-0.38v1.69c-0.19-0.39-0.63-0.68-1.16-0.68
	C53.36,16.12,52.76,16.71,52.76,17.63L52.76,17.63z M55.34,17.64c0,0.73-0.49,1.19-1.1,1.19c-0.62,0-1.1-0.45-1.1-1.19
	c0-0.75,0.48-1.18,1.1-1.18C54.85,16.45,55.34,16.9,55.34,17.64L55.34,17.64z M57.84,16.44c0.55,0,1.04,0.35,1.03,1.03h-2.07
	C56.83,16.79,57.3,16.44,57.84,16.44L57.84,16.44z M59.21,18.18h-0.4c-0.11,0.39-0.45,0.66-0.95,0.66c-0.55,0-1.03-0.36-1.06-1.05
	h2.45c0.01-0.1,0.01-0.18,0.01-0.3c0-0.75-0.53-1.37-1.39-1.37c-0.85,0-1.45,0.58-1.45,1.52c0,0.93,0.61,1.52,1.45,1.52
	C58.6,19.15,59.07,18.73,59.21,18.18L59.21,18.18z M59.94,19.11h0.38v-4h-0.38V19.11L59.94,19.11z M61.18,19.11h0.38v-4h-0.38V19.11
	L61.18,19.11z M63.67,16.44c0.55,0,1.04,0.35,1.03,1.03h-2.07C62.67,16.79,63.14,16.44,63.67,16.44L63.67,16.44z M65.04,18.18h-0.4
	c-0.11,0.39-0.45,0.66-0.95,0.66c-0.55,0-1.03-0.36-1.06-1.05h2.45c0.01-0.1,0.01-0.18,0.01-0.3c0-0.75-0.53-1.37-1.39-1.37
	c-0.85,0-1.45,0.58-1.45,1.52c0,0.93,0.61,1.52,1.45,1.52C64.43,19.15,64.9,18.73,65.04,18.18L65.04,18.18z M67.08,17.63
	c0,0.92,0.6,1.52,1.4,1.52c0.59,0,1-0.32,1.17-0.7v0.65h0.38v-2.95h-0.38v0.65c-0.17-0.37-0.57-0.69-1.17-0.69
	C67.68,16.12,67.08,16.71,67.08,17.63L67.08,17.63z M69.66,17.64c0,0.73-0.49,1.19-1.1,1.19c-0.62,0-1.1-0.45-1.1-1.19
	c0-0.75,0.48-1.18,1.1-1.18C69.16,16.45,69.66,16.9,69.66,17.64L69.66,17.64z M70.9,19.11h0.38v-4H70.9V19.11L70.9,19.11z
	 M72.51,16.81v-0.65h-0.37v4.34h0.37v-2.04c0.17,0.37,0.58,0.69,1.17,0.69c0.8,0,1.4-0.6,1.4-1.52c0-0.92-0.6-1.51-1.4-1.51
	C73.09,16.12,72.68,16.44,72.51,16.81L72.51,16.81z M74.7,17.63c0,0.75-0.48,1.19-1.1,1.19c-0.6,0-1.1-0.45-1.1-1.19
	c0-0.73,0.5-1.19,1.1-1.19C74.22,16.45,74.7,16.88,74.7,17.63L74.7,17.63z M75.78,19.11h0.38v-2.95h-0.38V19.11L75.78,19.11z
	 M75.97,15.61c0.15,0,0.28-0.12,0.28-0.28c0-0.16-0.12-0.28-0.28-0.28c-0.15,0-0.28,0.11-0.28,0.28
	C75.69,15.49,75.82,15.61,75.97,15.61L75.97,15.61z"/>
</svg>
