<svg id="Layer_1" data-name="Layer 1" xmlns="http://www.w3.org/2000/svg" viewBox="0 0 54.54 20.52"><defs><style>.cls-1{fill:#a7a8a9;}.cls-2{fill:#2d4899;}</style></defs><g id="eX"><g id="X"><path class="cls-1" d="M36.13,3.31a1,1,0,0,1,.67.28l6.64,6.64a.89.89,0,0,1,.21.32.94.94,0,0,1-.19,1l-3.65,3.65a.91.91,0,0,1-.66.27.9.9,0,0,1-.66-.27.92.92,0,0,1,0-1.32L41.42,11l.06-.06-.06-.06-6-5.95a.94.94,0,0,1,0-1.32.92.92,0,0,1,.66-.28"/><path class="cls-1" d="M50.71,0a.92.92,0,0,1,.66.28.91.91,0,0,1,.28.66.92.92,0,0,1-.28.66L44.73,8.28a1,1,0,0,1-.7.29,1,1,0,0,1-.66-.27L39.73,4.65A.91.91,0,0,1,39.45,4a.92.92,0,0,1,.28-.66.9.9,0,0,1,.66-.27.91.91,0,0,1,.66.27L44,6.26l.06.06.06-.06L50.05.32A.92.92,0,0,1,50.71,0"/><path class="cls-1" d="M50.44,5a.94.94,0,0,1,.66.27.92.92,0,0,1,.28.66.91.91,0,0,1-.28.66L48.17,9.54l-.06.06.06.06,5.95,5.94a.94.94,0,0,1-.66,1.6.94.94,0,0,1-.66-.27l-6.65-6.65a1,1,0,0,1,0-1.35l3.65-3.65A1,1,0,0,1,50.44,5"/><path class="cls-1" d="M45.55,12a1,1,0,0,1,.65.27l3.64,3.65a.91.91,0,0,1,.28.66.92.92,0,0,1-.28.66.9.9,0,0,1-.66.27.91.91,0,0,1-.66-.27l-2.93-2.93-.06-.06-.06.06-5.95,5.94a.91.91,0,0,1-.66.28.92.92,0,0,1-.66-.28.9.9,0,0,1-.27-.66.91.91,0,0,1,.27-.66l6.64-6.64a1,1,0,0,1,.32-.21,1,1,0,0,1,.39-.08"/></g><path class="cls-1" d="M32.21,5.91a4.82,4.82,0,1,0,2.09,9.14,1,1,0,0,0,.35-.3.91.91,0,0,0-.25-1.25.87.87,0,0,0-.87-.07l-.23.09a2.2,2.2,0,0,1-.36.13,3.39,3.39,0,0,1-.77.1,3,3,0,0,1-2.85-2.14h6.87a.86.86,0,0,0,.82-.87,4.82,4.82,0,0,0-4.8-4.83m-2.9,4a3,3,0,0,1,2.9-2.18A3.06,3.06,0,0,1,35.1,9.88Z"/></g><g id="Claim"><path class="cls-2" d="M1.38,20.52a1.36,1.36,0,1,1,0-2.71.19.19,0,0,1,0,.38,1,1,0,0,0,0,2,.18.18,0,0,1,.18.18.18.18,0,0,1-.18.19"/><path class="cls-2" d="M2.38,17.56a.23.23,0,0,1,0-.46.23.23,0,0,1,0,.46m0,2.94a.18.18,0,0,1-.19-.19V18a.19.19,0,0,1,.19-.19.18.18,0,0,1,.18.19v2.29a.18.18,0,0,1-.18.19"/><path class="cls-2" d="M4,18.19a.39.39,0,0,0-.4.39v1.75a.18.18,0,0,1-.19.19.18.18,0,0,1-.18-.19V18.58A.77.77,0,0,1,4,17.81a.19.19,0,0,1,0,.38"/><path class="cls-2" d="M5.84,20.52a1.36,1.36,0,1,1,0-2.71.19.19,0,0,1,0,.38,1,1,0,1,0,0,2,.18.18,0,0,1,.18.18.18.18,0,0,1-.18.19"/><path class="cls-2" d="M8,20.52A1.36,1.36,0,0,1,6.6,19.17V18a.19.19,0,0,1,.19-.18A.18.18,0,0,1,7,18v1.15a1,1,0,0,0,2,0V18a.18.18,0,0,1,.19-.19.18.18,0,0,1,.18.19v1.14A1.35,1.35,0,0,1,8,20.52"/><path class="cls-2" d="M10.13,17.56a.23.23,0,1,1,.23-.23.23.23,0,0,1-.23.23m0,2.94a.18.18,0,0,1-.19-.19V18a.19.19,0,0,1,.19-.19.18.18,0,0,1,.19.19v2.29a.18.18,0,0,1-.19.19"/><path class="cls-2" d="M11.84,18.26h-.47v1.49a.4.4,0,0,0,.4.4.17.17,0,0,1,.18.18.18.18,0,0,1-.18.19.76.76,0,0,1-.77-.77V17.24a.18.18,0,0,1,.18-.18.18.18,0,0,1,.19.18v.64h.47a.19.19,0,0,1,0,.38"/><path class="cls-2" d="M13.75,20.52a1.36,1.36,0,1,1,1.35-1.35,1.35,1.35,0,0,1-1.35,1.35m0-2.33a1,1,0,1,0,1,1,1,1,0,0,0-1-1"/><path class="cls-2" d="M18.3,20.52a1.36,1.36,0,0,1,0-2.71,1.32,1.32,0,0,1,.7.2.16.16,0,0,1,.09.15.2.2,0,0,1-.18.2.23.23,0,0,1-.11,0,1,1,0,0,0-.5-.14,1,1,0,1,0,1,1v-2a.18.18,0,0,1,.19-.19.18.18,0,0,1,.18.19v2a1.35,1.35,0,0,1-1.35,1.35"/><path class="cls-2" d="M20.48,17.56a.23.23,0,1,1,.22-.23.23.23,0,0,1-.22.23m0,2.94a.19.19,0,0,1-.2-.19V18a.19.19,0,0,1,.19-.19.18.18,0,0,1,.19.19v2.29a.18.18,0,0,1-.18.19"/><path class="cls-2" d="M23.92,20.44a1.3,1.3,0,0,1,0-2.59.18.18,0,0,1,0,.36.94.94,0,0,0,0,1.87.18.18,0,1,1,0,.36"/><path class="cls-2" d="M25.44,18.21a.38.38,0,0,0-.38.38v1.67a.18.18,0,0,1-.36,0V18.59a.74.74,0,0,1,.74-.74.18.18,0,0,1,0,.36"/><path class="cls-2" d="M28.31,19.31H26.25a.94.94,0,0,0,.92.77.92.92,0,0,0,.71-.33A1.12,1.12,0,0,0,28,19.6a.18.18,0,0,1,.15-.1.19.19,0,0,1,.19.17.17.17,0,0,1,0,.1,1.29,1.29,0,1,1,.17-.63.17.17,0,0,1-.16.17M27.18,18.2a.94.94,0,0,0-.93.77H28.1a.94.94,0,0,0-.92-.77"/><path class="cls-2" d="M30.19,20.44a1.3,1.3,0,1,1,0-2.59,1.21,1.21,0,0,1,.66.19.16.16,0,0,1,.09.14.19.19,0,0,1-.18.19l-.1,0a1,1,0,0,0-.47-.13.94.94,0,1,0,.93.93V17.28a.18.18,0,0,1,.18-.18.17.17,0,0,1,.18.18v1.86a1.3,1.3,0,0,1-1.29,1.3"/><path class="cls-2" d="M32.26,17.61a.22.22,0,0,1,0-.44.22.22,0,0,1,0,.44m0,2.81a.17.17,0,0,1-.18-.18V18.05a.17.17,0,0,1,.18-.18.17.17,0,0,1,.17.18v2.19a.17.17,0,0,1-.17.18"/><path class="cls-2" d="M33.89,18.27h-.45V19.7a.38.38,0,0,0,.38.38.17.17,0,0,1,.18.18.18.18,0,0,1-.18.18.74.74,0,0,1-.74-.74V17.31a.18.18,0,0,1,.18-.18.17.17,0,0,1,.18.18v.61h.45a.17.17,0,0,1,.17.18.16.16,0,0,1-.17.17"/><path class="cls-2" d="M35.71,20.44a1.3,1.3,0,1,1,1.3-1.3,1.3,1.3,0,0,1-1.3,1.3m0-2.23a.94.94,0,1,0,.94.93.93.93,0,0,0-.94-.93"/></g><g id="ABR"><path class="cls-2" d="M10.76,4.2v6.53a4.8,4.8,0,1,0,4.8-4.8h-.19a4.43,4.43,0,0,0-.89.12l-.11,0h0a3.88,3.88,0,0,0-1.25.52,5.58,5.58,0,0,0-.56.39V4.2a.88.88,0,0,0-.9-.9.86.86,0,0,0-.89.9m1.78,6.53a3,3,0,1,1,3,3,3,3,0,0,1-3-3"/><path class="cls-2" d="M22.62,15.53a.88.88,0,0,1-.91-.9V10.29c0-2.8,1.59-4.4,3.93-4.41h.49a.9.9,0,0,1,0,1.8h-.49c-1.58,0-2.13,1.09-2.13,2.61v4.34a.87.87,0,0,1-.89.9"/><path class="cls-2" d="M4.82,5.88a4.83,4.83,0,0,0,0,9.65H5a5,5,0,0,0,.88-.11,4.09,4.09,0,0,0,1.39-.55,4.49,4.49,0,0,0,.57-.4v.09a.9.9,0,0,0,1.8,0V10.7A4.82,4.82,0,0,0,4.82,5.88m0,7.85a3,3,0,1,1,3-3,3,3,0,0,1-3,3"/></g></svg>