<?xml version="1.0" encoding="UTF-8"?>
<svg width="138px" height="27px" viewBox="0 0 138 27" version="1.1" xmlns="http://www.w3.org/2000/svg" xmlns:xlink="http://www.w3.org/1999/xlink">
    <title>Group 19 Copy</title>
    <defs>
        <polygon id="path-1" points="0 0.192512 12.438912 0.192512 12.438912 19.854592 0 19.854592"></polygon>
        <polygon id="path-3" points="0.21344 0.341248 13.032 0.341248 13.032 19.84 0.21344 19.84"></polygon>
    </defs>
    <g id="La-tua-carta" stroke="none" stroke-width="1" fill="none" fill-rule="evenodd">
        <g id="Group-19-Copy" transform="translate(0.500000, 0.500000)">
            <g id="Group-3" transform="translate(0.000000, 0.296512)">
                <mask id="mask-2" fill="white">
                    <use xlink:href="#path-1"></use>
                </mask>
                <g id="Clip-2"></g>
                <path d="M0.461952,19.148032 C0.189952,19.066752 0.054272,18.957952 0.054272,18.686592 L0.054272,16.677632 C0.054272,16.378752 0.163072,16.214912 0.516352,16.241792 C2.253952,16.433152 3.748352,16.541952 5.431552,16.541952 C7.523072,16.541952 8.228992,15.754112 8.228992,14.396032 C8.228992,13.254912 7.740032,12.413952 6.463872,11.843712 L3.204992,10.349952 C0.896512,9.263872 -0.000128,7.633792 -0.000128,5.297792 C-0.000128,1.876992 1.820032,0.192512 6.083712,0.192512 C7.821952,0.192512 9.613952,0.464512 11.188992,0.898432 C11.460992,0.979712 11.596672,1.088512 11.596672,1.359872 L11.596672,3.343232 C11.596672,3.668352 11.487872,3.804672 11.134592,3.777152 C9.668352,3.614592 8.283392,3.505792 6.898432,3.505792 C4.970112,3.505792 4.209792,4.048512 4.209792,5.405952 C4.209792,6.493952 4.779392,7.226112 5.974912,7.769472 L9.342592,9.317632 C11.623552,10.349952 12.438912,12.115072 12.438912,14.586112 C12.438912,17.844992 10.781312,19.854592 6.001792,19.854592 C4.128512,19.854592 2.281472,19.610752 0.461952,19.148032" id="Fill-1" fill="#19344B" mask="url(#mask-2)"></path>
            </g>
            <path d="M21.023232,16.946368 C21.919232,16.946368 22.598272,16.919488 23.439872,16.783808 L23.439872,14.230848 C22.680192,14.122048 21.810432,14.068288 20.886912,14.068288 C18.687872,14.068288 18.253312,14.556608 18.253312,15.534528 C18.253312,16.539328 18.904832,16.946368 21.023232,16.946368 L21.023232,16.946368 Z M23.439872,11.379648 C23.439872,9.342528 23.005952,8.635968 19.583872,8.635968 C18.415872,8.635968 17.166592,8.744768 16.379392,8.907968 C16.107392,8.961728 15.890432,8.879808 15.890432,8.554688 L15.890432,6.707648 C15.890432,6.463808 15.999232,6.300608 16.270592,6.219328 C17.845632,5.757888 19.366272,5.540288 20.697472,5.540288 C25.612672,5.540288 27.405312,7.170368 27.405312,10.944448 L27.405312,18.141888 C27.405312,18.901568 27.160832,19.308608 26.618112,19.444928 C25.123712,19.825088 22.842752,20.042048 20.968832,20.042048 C16.270592,20.042048 14.559872,18.712128 14.559872,15.561408 C14.559872,12.574528 16.406272,11.134528 19.501952,11.134528 C20.915072,11.134528 22.353792,11.406528 23.439872,11.840448 L23.439872,11.379648 Z" id="Fill-4" fill="#19344B"></path>
            <path d="M34.533504,19.363904 C34.533504,19.662784 34.397824,19.825344 34.072064,19.825344 L31.030144,19.825344 C30.704384,19.825344 30.568064,19.662784 30.568064,19.363904 L30.568064,7.468864 C30.568064,6.707904 30.813184,6.327744 31.356544,6.165184 C32.876544,5.756864 34.642304,5.539264 36.353024,5.539264 C37.276544,5.539264 38.254464,5.567424 39.204864,5.675584 C39.585024,5.729984 39.693824,5.865664 39.693824,6.192704 L39.693824,8.499904 C39.693824,8.798784 39.557504,8.989504 39.150464,8.908224 C38.335744,8.744384 37.466624,8.635584 36.815104,8.635584 C36.027264,8.635584 35.240064,8.689984 34.533504,8.825664 L34.533504,19.363904 Z" id="Fill-6" fill="#19344B"></path>
            <path d="M50.069184,8.745152 C49.526464,8.690752 48.792384,8.636352 48.168384,8.636352 C45.887424,8.636352 44.773184,9.668032 44.773184,12.220992 L44.773184,12.844992 C44.773184,15.398592 45.914304,16.946112 48.168384,16.946112 C48.819904,16.946112 49.444544,16.891712 50.069184,16.729152 L50.069184,8.745152 Z M50.069184,6.110912 L50.069184,0.434752 C50.069184,0.163392 50.232384,0.000192 50.503744,0.000192 L53.626944,0.000192 C53.871424,0.000192 54.034624,0.163392 54.034624,0.434752 L54.034624,18.141632 C54.034624,18.901952 53.790144,19.282112 53.246784,19.417792 C51.753024,19.824832 50.069184,20.041792 48.140864,20.041792 C43.225024,20.041792 40.808384,17.190592 40.808384,13.063232 L40.808384,12.031552 C40.808384,8.282432 42.981184,5.540032 46.729024,5.540032 C47.868864,5.540032 49.227584,5.757632 50.069184,6.110912 L50.069184,6.110912 Z" id="Fill-8" fill="#19344B"></path>
            <path d="M113.944192,16.946368 C114.840192,16.946368 115.519232,16.919488 116.360832,16.783808 L116.360832,14.230848 C115.601152,14.122048 114.731392,14.068288 113.807872,14.068288 C111.608832,14.068288 111.174272,14.556608 111.174272,15.534528 C111.174272,16.539328 111.825792,16.946368 113.944192,16.946368 L113.944192,16.946368 Z M116.360832,11.379648 C116.360832,9.342528 115.926272,8.635968 112.504832,8.635968 C111.336832,8.635968 110.088192,8.744768 109.300352,8.907968 C109.028352,8.961728 108.810752,8.879808 108.810752,8.554688 L108.810752,6.707648 C108.810752,6.463808 108.920192,6.300608 109.190912,6.219328 C110.766592,5.757888 112.287232,5.540288 113.618432,5.540288 C118.533632,5.540288 120.326272,7.170368 120.326272,10.944448 L120.326272,18.141888 C120.326272,18.901568 120.081792,19.308608 119.539072,19.444928 C118.044672,19.825088 115.763712,20.042048 113.889792,20.042048 C109.190912,20.042048 107.480832,18.712128 107.480832,15.561408 C107.480832,12.574528 109.327232,11.134528 112.422912,11.134528 C113.835392,11.134528 115.274752,11.406528 116.360832,11.840448 L116.360832,11.379648 Z" id="Fill-10" fill="#0599A9"></path>
            <g id="Group-14" transform="translate(122.880000, 5.416512)">
                <mask id="mask-4" fill="white">
                    <use xlink:href="#path-3"></use>
                </mask>
                <g id="Clip-13"></g>
                <path d="M1.8704,19.188608 C1.5984,19.107328 1.43584,18.971648 1.43584,18.699008 L1.43584,16.825728 C1.43584,16.554368 1.5984,16.418688 1.89792,16.473088 C2.984,16.636288 4.34208,16.743808 5.72704,16.743808 C8.30688,16.743808 9.04032,16.011008 9.0672,14.354048 L9.0672,13.838208 C8.1168,14.190848 6.81312,14.408448 5.50944,14.408448 C2.11488,14.408448 0.21344,12.996608 0.21344,8.732928 L0.21344,0.802048 C0.21344,0.503808 0.34976,0.341248 0.67552,0.341248 L3.7168,0.341248 C4.0432,0.341248 4.17824,0.503808 4.17824,0.802048 L4.17824,8.542848 C4.17824,10.443648 4.91232,11.312128 6.8944,11.312128 C7.62784,11.312128 8.41568,11.284608 9.0672,11.203968 L9.0672,0.802048 C9.0672,0.503808 9.20288,0.341248 9.52864,0.341248 L12.57056,0.341248 C12.89632,0.341248 13.032,0.503808 13.032,0.802048 L13.032,14.380928 C13.032,18.101888 11.37568,19.840128 6.40608,19.840128 C4.96608,19.840128 3.28288,19.623168 1.8704,19.188608" id="Fill-12" fill="#0599A9" mask="url(#mask-4)"></path>
            </g>
            <path d="M64.747264,11.202048 L60.483584,11.202048 C60.646784,8.975488 61.746944,8.380928 62.997504,8.380928 C64.654464,8.380928 65.643264,9.397248 65.643264,10.835968 C65.643264,11.324928 65.345024,11.202048 64.747264,11.202048 L64.747264,11.202048 Z M76.401664,6.110208 C76.239104,5.865728 76.021504,5.757568 75.695744,5.757568 L72.382464,5.757568 C71.975424,5.757568 71.947904,6.110208 72.111104,6.355328 L75.472384,11.215488 L69.590784,11.215488 C69.601664,11.097088 69.619584,10.975488 69.608064,10.849408 C69.302784,7.362048 67.517184,5.539968 63.362304,5.539968 C58.664064,5.539968 56.518784,8.120448 56.518784,12.275968 L56.518784,13.116928 C56.518784,17.489408 58.582144,20.042368 63.769344,20.042368 C65.209344,20.042368 66.865664,19.825408 68.223744,19.444608 C68.467584,19.363328 68.603904,19.200128 68.603904,18.928768 L68.603904,17.001088 C68.603904,16.729728 68.467584,16.620928 68.168704,16.675328 C67.055744,16.837888 65.562624,16.946688 64.231424,16.946688 C62.166784,16.946688 60.483584,16.066688 60.484224,14.062848 L63.245824,14.027008 C63.294464,14.035328 63.351424,14.041088 63.421824,14.041088 L75.519744,14.060928 L72.110464,19.227648 C71.947904,19.472768 71.975424,19.825408 72.382464,19.825408 L75.695744,19.825408 C76.021504,19.825408 76.239104,19.717248 76.401664,19.472768 L80.509824,13.187328 C80.626944,13.023488 80.684544,12.830848 80.685184,12.638848 C80.685184,12.446848 80.626944,12.255488 80.510464,12.091008 L76.401664,6.110208 Z" id="Fill-15" fill="#19344B"></path>
            <path d="M102.479168,7.223872 C102.479168,9.113792 101.932608,11.215552 99.533888,11.215552 L97.183168,11.215552 L97.183168,3.801792 C97.780288,3.638592 98.568128,3.557312 99.274048,3.557312 C101.691968,3.557312 102.479168,4.589632 102.479168,6.598592 L102.479168,7.223872 Z M99.600448,0.489152 C97.644608,0.489152 95.662528,0.651072 94.114368,1.058112 C93.353408,1.248832 93.108928,1.684032 93.108928,2.606912 L93.108928,11.215552 L85.898688,11.215552 L89.259968,6.355392 C89.423168,6.110912 89.396288,5.757632 88.988608,5.757632 L85.674048,5.757632 C85.348928,5.757632 85.131968,5.865792 84.969408,6.110912 L80.859968,12.090432 C80.743488,12.254272 80.684608,12.446912 80.6852428,12.639552 C80.6852428,12.830912 80.744128,13.022912 80.861248,13.186112 L84.969408,19.472192 C85.131968,19.716672 85.348928,19.824832 85.674688,19.824832 L88.988608,19.824832 C89.396288,19.824832 89.423168,19.472192 89.260608,19.227712 L85.855808,14.067392 L93.108928,14.067392 L93.108928,19.363392 C93.108928,19.662912 93.244608,19.824832 93.571648,19.824832 L96.721728,19.824832 C97.047488,19.824832 97.183168,19.662912 97.183168,19.363392 L97.183168,14.067392 L99.486528,14.067392 C99.686208,14.073792 99.991488,14.075712 100.276928,14.067392 C105.075008,13.930432 106.470848,11.188672 106.470848,7.169472 L106.470848,6.300992 C106.470848,2.471232 104.434368,0.489152 99.600448,0.489152 L99.600448,0.489152 Z" id="Fill-17" fill="#0599A9"></path>
        </g>
    </g>
</svg>