<svg id="Livello_1" data-name="Livello 1" xmlns="http://www.w3.org/2000/svg" viewBox="0 0 138 27"><defs><style>.cls-1{fill:#215aa8;}.cls-1,.cls-2{fill-rule:evenodd;}.cls-2{fill:#3fb6e8;}</style></defs><path class="cls-1" d="M29.32,14.47a8.61,8.61,0,0,0-2.55-2.72,6.15,6.15,0,0,0-6.93,0,7.77,7.77,0,0,0-2.44,2.66.3.3,0,0,0-.08.16h12a0,0,0,0,1,0,0Zm-6-7.93a8.94,8.94,0,0,1,3.84.86,10.92,10.92,0,0,1,5.49,5.47,9.14,9.14,0,0,1,.85,3.84,2.06,2.06,0,0,1-.62,1.48,2,2,0,0,1-1.58.6h-14a7.74,7.74,0,0,0,2.81,3.08,6.44,6.44,0,0,0,3.17.91,4.77,4.77,0,0,0,1.5-.21c.41-.14.77-.26,1.07-.38a2,2,0,0,1,2.67.36,2.1,2.1,0,0,1,.56,1.39,2.83,2.83,0,0,1-.1.71,1.36,1.36,0,0,1-.44.66l0-.08a6.48,6.48,0,0,1-2.45,1.25,12,12,0,0,1-2.91.42,8.62,8.62,0,0,1-3.88-.72A10.45,10.45,0,0,1,14,20.68a9.71,9.71,0,0,1-.79-4A9.42,9.42,0,0,1,14,12.87,10.28,10.28,0,0,1,16.2,9.63,11.29,11.29,0,0,1,19.44,7.4,9.06,9.06,0,0,1,23.34,6.54Z"/><path class="cls-2" d="M122,.09a2.08,2.08,0,0,1,1.54.64,2.72,2.72,0,0,1,.69,1.62V6.12h9.67a1.91,1.91,0,0,1,1.47.65,2.15,2.15,0,0,1,0,3,1.92,1.92,0,0,1-1.43.67h-9.67v6.11a6.17,6.17,0,0,0,1.75,4.28,6.27,6.27,0,0,0,1.92,1.34,5.81,5.81,0,0,0,2.36.5,6.39,6.39,0,0,0,2.41-.4,5.32,5.32,0,0,0,1.74-1.11h-.05a2.29,2.29,0,0,1,3.1.05,1.89,1.89,0,0,1,.59,1.46,2.31,2.31,0,0,1-.11.69,1.17,1.17,0,0,1-.39.61h0a10.8,10.8,0,0,1-3.21,2.18,9.45,9.45,0,0,1-3.78.75,11.43,11.43,0,0,1-4.13-.74A9.92,9.92,0,0,1,123,24.06a10.42,10.42,0,0,1-3.23-7.51V2.35A2.33,2.33,0,0,1,120.38.8,2,2,0,0,1,122,.09Z"/><path class="cls-1" d="M4.4,20.86v3.77a2.67,2.67,0,0,1-.69,1.61,2,2,0,0,1-1.53.64A2,2,0,0,1,.6,26.17,2.36,2.36,0,0,1,0,24.63V10.43A10.4,10.4,0,0,1,3.24,2.92,9.92,9.92,0,0,1,6.63.83,11.43,11.43,0,0,1,10.76.09a9.51,9.51,0,0,1,3.79.76A10.76,10.76,0,0,1,17.76,3h-.05a1.26,1.26,0,0,1,.4.61,2.3,2.3,0,0,1,.1.69,1.85,1.85,0,0,1-.59,1.47,2.28,2.28,0,0,1-3.09,0h0a5.41,5.41,0,0,0-1.74-1.12,6.6,6.6,0,0,0-2.41-.4,5.86,5.86,0,0,0-2.37.5A6.42,6.42,0,0,0,6.13,6.17,6.09,6.09,0,0,0,4.86,8.11a5.93,5.93,0,0,0-.46,2.32V20.85Z"/><path class="cls-2" d="M114.5,14.47a8.64,8.64,0,0,0-2.56-2.72,6.15,6.15,0,0,0-6.93,0,7.75,7.75,0,0,0-2.43,2.66.26.26,0,0,0-.09.16h12s0,0,0,0Zm-6-7.93a8.94,8.94,0,0,1,3.84.86,10.94,10.94,0,0,1,5.48,5.47,9.31,9.31,0,0,1,.86,3.84,2.11,2.11,0,0,1-.63,1.48,2,2,0,0,1-1.58.6H102.54a7.65,7.65,0,0,0,2.8,3.08,6.47,6.47,0,0,0,3.18.91,4.67,4.67,0,0,0,1.49-.21l1.07-.37a2,2,0,0,1,2.68.35,2.1,2.1,0,0,1,.56,1.39,3.38,3.38,0,0,1-.1.71,1.43,1.43,0,0,1-.44.67l0-.08a6.86,6.86,0,0,1-2.45,1.25,12.46,12.46,0,0,1-2.91.41,8.75,8.75,0,0,1-3.88-.71,10.5,10.5,0,0,1-5.44-5.51,9.71,9.71,0,0,1-.79-4,9.59,9.59,0,0,1,.81-3.84,10.28,10.28,0,0,1,2.22-3.24,11.15,11.15,0,0,1,3.24-2.23A8.91,8.91,0,0,1,108.52,6.54Z"/><path class="cls-2" d="M87,6.51a10.22,10.22,0,0,1,3.86.73,10,10,0,0,1,3.22,2,9.82,9.82,0,0,1,2.22,3.09,9.18,9.18,0,0,1,.84,3.9v8.46a1.9,1.9,0,0,1-.61,1.42,2.14,2.14,0,0,1-1.44.63,2.09,2.09,0,0,1-1.45-.54A1.78,1.78,0,0,1,93,24.84V16.63a5.9,5.9,0,0,0-1.73-4.24A6.06,6.06,0,0,0,87,10.6a5.94,5.94,0,0,0-4.17,1.67,6.32,6.32,0,0,0-1.3,1.85A5.49,5.49,0,0,0,81,16.38v8.33a1.89,1.89,0,0,1-.63,1.44,2,2,0,0,1-1.46.61,2.12,2.12,0,0,1-1.46-.54,1.72,1.72,0,0,1-.63-1.38V16.63a10.06,10.06,0,0,1,.84-3.94,10.39,10.39,0,0,1,2.13-3.22A9.91,9.91,0,0,1,83,7.29,10.07,10.07,0,0,1,87,6.51Z"/><path class="cls-2" d="M74.71,17.27a2.24,2.24,0,0,1-2.23,2.18A2,2,0,0,1,71,18.8a2.12,2.12,0,0,1-.63-1.53A2.19,2.19,0,0,1,71,15.7a2,2,0,0,1,1.5-.64,2.22,2.22,0,0,1,2.23,2.21Z"/><path class="cls-1" d="M64.82,7.2a2.07,2.07,0,0,1,1.34-.53,2.12,2.12,0,0,1,1.51.67V7.25a2,2,0,0,1,.53,1.43,2,2,0,0,1-.53,1.47l-6.58,6.6,6.58,6.62a2,2,0,0,1,.58,1.5,2.17,2.17,0,0,1-.13.76,1.83,1.83,0,0,1-.45.71,1.89,1.89,0,0,1-1.39.54,2.22,2.22,0,0,1-1.59-.67l-6.57-6.48-1.59,1.58L54.85,23l-1.67,1.7c-.56.56-1.09,1.08-1.59,1.59a2,2,0,0,1-.71.43,2.24,2.24,0,0,1-.88.15,2.55,2.55,0,0,1-.72-.1,1.74,1.74,0,0,1-.67-.44A2.26,2.26,0,0,1,48,24.83a2,2,0,0,1,.53-1.38h0l6.74-6.7-6.74-6.7A1.8,1.8,0,0,1,48,8.8a2.38,2.38,0,0,1,.58-1.55A2,2,0,0,1,50,6.62a2.15,2.15,0,0,1,1.54.71V7.25l6.58,6.57Z"/><path class="cls-1" d="M35.59,16.67V1.93A2.25,2.25,0,0,1,36.28.67a2,2,0,0,1,1.4-.55,1.82,1.82,0,0,1,1.37.59,2.57,2.57,0,0,1,.69,1.42v23a2.29,2.29,0,0,1-.69,1.26,2,2,0,0,1-1.4.54,1.85,1.85,0,0,1-1.36-.59,2.58,2.58,0,0,1-.7-1.43V16.67Z"/><path class="cls-1" d="M41.81,16.67V8.34a2.29,2.29,0,0,1,.69-1.26,2,2,0,0,1,1.4-.55,1.84,1.84,0,0,1,1.36.59A2.58,2.58,0,0,1,46,8.55V25.08a2.29,2.29,0,0,1-.69,1.26,2,2,0,0,1-1.4.54,1.84,1.84,0,0,1-1.36-.59,2.58,2.58,0,0,1-.7-1.43V16.67Z"/><path class="cls-1" d="M.63,18.84H9.14a1.85,1.85,0,0,0,1.42-.63,2.09,2.09,0,0,0-.05-2.9,1.87,1.87,0,0,0-1.38-.65H.63"/></svg>