<svg id="Layer_1" data-name="Layer 1" xmlns="http://www.w3.org/2000/svg" viewBox="0 0 183 57">
    <defs>
        <style>.cls-1{fill:#0e354e;}.cls-2{fill:#4fa0af;}</style>
    </defs>
    <path class="cls-1" d="M71.24,24.44c-.22-.07-.33-.15-.33-.38V22.43c0-.25.09-.38.38-.36a34.09,34.09,0,0,0,4,.25c1.71,0,2.28-.65,2.28-1.75a2.11,2.11,0,0,0-1.44-2.08l-2.65-1.22a4.1,4.1,0,0,1-2.61-4.11c0-2.79,1.48-4.16,4.95-4.16A16.13,16.13,0,0,1,80,9.57c.22.07.33.16.33.38v1.61c0,.27-.08.38-.37.36a31.81,31.81,0,0,0-3.45-.22c-1.57,0-2.19.44-2.19,1.55a2,2,0,0,0,1.43,1.92l2.75,1.26c1.86.84,2.52,2.28,2.52,4.29,0,2.66-1.35,4.3-5.24,4.3a18.19,18.19,0,0,1-4.52-.58" />
    <path class="cls-1" d="M88,22.4a11.51,11.51,0,0,0,2-.13V20.19a14.67,14.67,0,0,0-2.08-.13c-1.79,0-2.14.4-2.14,1.19S86.27,22.4,88,22.4m2-4.53c0-1.66-.35-2.24-3.14-2.24a13.66,13.66,0,0,0-2.61.23c-.22,0-.4,0-.4-.29V14.06a.37.37,0,0,1,.31-.39,12.88,12.88,0,0,1,3.61-.56c4,0,5.46,1.33,5.46,4.41v5.86c0,.62-.2.95-.64,1.06a20.94,20.94,0,0,1-4.6.49c-3.83,0-5.22-1.09-5.22-3.65s1.5-3.61,4-3.61a8.83,8.83,0,0,1,3.21.58Z" />
    <path class="cls-1" d="M99,24.37a.33.33,0,0,1-.38.38H96.15a.33.33,0,0,1-.38-.38V14.68c0-.62.2-.93.64-1.06a16.26,16.26,0,0,1,4.07-.51,20.23,20.23,0,0,1,2.32.11c.31,0,.4.16.4.42v1.88c0,.25-.11.4-.44.34a9.89,9.89,0,0,0-1.9-.23,10.07,10.07,0,0,0-1.86.16Z" />
    <path class="cls-1" d="M111.66,15.72c-.45,0-1-.09-1.55-.09-1.86,0-2.77.85-2.77,2.93v.5c0,2.08.93,3.34,2.77,3.34a6.19,6.19,0,0,0,1.55-.17Zm0-2.14V9A.32.32,0,0,1,112,8.6h2.54a.32.32,0,0,1,.34.35V23.38c0,.62-.2.93-.65,1a15.73,15.73,0,0,1-4.16.51c-4,0-6-2.33-6-5.69V18.4c0-3,1.77-5.29,4.82-5.29a7.88,7.88,0,0,1,2.73.47" />
    <path class="cls-2" d="M163.69,22.4a11.58,11.58,0,0,0,2-.13V20.19a14.77,14.77,0,0,0-2.08-.13c-1.79,0-2.15.4-2.15,1.19s.53,1.15,2.26,1.15m2-4.53c0-1.66-.35-2.24-3.14-2.24a13.66,13.66,0,0,0-2.61.23c-.22,0-.4,0-.4-.29V14.06a.37.37,0,0,1,.31-.39,12.86,12.86,0,0,1,3.6-.56c4,0,5.47,1.33,5.47,4.41v5.86c0,.62-.2.95-.64,1.06a21,21,0,0,1-4.6.49c-3.83,0-5.22-1.09-5.22-3.65s1.5-3.61,4-3.61a8.91,8.91,0,0,1,3.21.58Z" />
    <path class="cls-2" d="M172.49,28.64c-.22-.06-.35-.17-.35-.39V26.72c0-.22.13-.33.38-.29a22.1,22.1,0,0,0,3.12.22c2.1,0,2.69-.59,2.72-1.94v-.42a9,9,0,0,1-2.9.46c-2.77,0-4.32-1.15-4.32-4.62V13.67a.33.33,0,0,1,.38-.38H174c.26,0,.37.13.37.38V20c0,1.55.6,2.26,2.22,2.26a14.36,14.36,0,0,0,1.77-.09V13.67c0-.25.11-.38.37-.38h2.48a.33.33,0,0,1,.38.38V24.73c0,3-1.35,4.44-5.4,4.44a13,13,0,0,1-3.7-.53" />
    <path class="cls-1" d="M123.61,17.73h-3.47c.13-1.82,1-2.3,2-2.3a1.94,1.94,0,0,1,2.15,2c0,.4-.24.3-.73.3m9.5-4.15a.64.64,0,0,0-.58-.29h-2.7c-.33,0-.35.29-.22.49l2.74,4h-4.79a1.51,1.51,0,0,0,0-.3c-.25-2.84-1.7-4.33-5.09-4.33-3.82,0-5.57,2.1-5.57,5.49v.69c0,3.56,1.68,5.64,5.91,5.64a14.11,14.11,0,0,0,3.62-.49.41.41,0,0,0,.31-.42V22.45c0-.22-.11-.31-.35-.27a22.7,22.7,0,0,1-3.21.22c-1.68,0-3-.71-3-2.34l2.25,0h10l-2.78,4.21c-.13.2-.11.49.22.49h2.7a.64.64,0,0,0,.58-.29l3.34-5.12a.74.74,0,0,0,0-.89Z" />
    <path class="cls-2" d="M154.35,14.48c0,1.54-.44,3.26-2.4,3.26H150v-6a6.5,6.5,0,0,1,1.7-.2c2,0,2.61.84,2.61,2.48ZM152,9a18.56,18.56,0,0,0-4.47.46c-.62.16-.82.51-.82,1.26v7h-5.88l2.74-4c.13-.2.11-.49-.22-.49h-2.7a.62.62,0,0,0-.57.29l-3.35,4.87a.73.73,0,0,0-.14.45.72.72,0,0,0,.14.44l3.35,5.12a.62.62,0,0,0,.57.29h2.7c.33,0,.35-.29.22-.49l-2.77-4.2h5.91v4.31c0,.25.11.38.37.38h2.57a.33.33,0,0,0,.38-.38V20.06h1.87c.17,0,.41,0,.65,0,3.91-.11,5-2.35,5-5.62v-.71C157.6,10.61,155.94,9,152,9" />
    <path class="cls-1" d="M76.68,49.22a4.63,4.63,0,0,1-3.6-1.3,5,5,0,0,1-1.19-3.51v-.72a5,5,0,0,1,1.18-3.51,4.59,4.59,0,0,1,3.59-1.31,12.7,12.7,0,0,1,1.4.08,7.38,7.38,0,0,1,1.22.23.26.26,0,0,1,.21.27V40c0,.16-.09.23-.27.19-.39-.07-.79-.11-1.19-.15s-.81,0-1.2,0a3.66,3.66,0,0,0-2.77.94,4,4,0,0,0-.89,2.87v.56a4.08,4.08,0,0,0,.88,2.86,3.68,3.68,0,0,0,2.8.94c.42,0,.83,0,1.25-.05s.83-.08,1.21-.14c.19,0,.28,0,.28.19v.51a.27.27,0,0,1-.22.27,7.25,7.25,0,0,1-1.24.23,13.94,13.94,0,0,1-1.45.08" />
    <path class="cls-1" d="M89.8,48.13c.47,0,1,0,1.43-.06a9.44,9.44,0,0,0,1.36-.21h0V44.51a9.48,9.48,0,0,0-1.38-.22,14.72,14.72,0,0,0-1.49-.07,4.43,4.43,0,0,0-2.32.45,1.67,1.67,0,0,0-.68,1.5,1.64,1.64,0,0,0,.71,1.52,4.83,4.83,0,0,0,2.39.44m3.5.7a12.74,12.74,0,0,1-1.68.28,17.73,17.73,0,0,1-1.9.11,9,9,0,0,1-2-.2,3.51,3.51,0,0,1-1.32-.57,2.12,2.12,0,0,1-.73-1,3.6,3.6,0,0,1-.22-1.33,2.7,2.7,0,0,1,1-2.29,4.46,4.46,0,0,1,2.79-.75c.28,0,.57,0,.88,0l.9.12.85.17c.27.07.52.14.76.22v-.59a6.92,6.92,0,0,0-.14-1.49,1.93,1.93,0,0,0-.51-1,2.22,2.22,0,0,0-1-.52,7.92,7.92,0,0,0-1.7-.15c-.43,0-.87,0-1.32,0s-.87.09-1.24.16a.31.31,0,0,1-.19,0,.17.17,0,0,1-.08-.16v-.54a.22.22,0,0,1,.17-.21A8.57,8.57,0,0,1,87.91,39a11.55,11.55,0,0,1,1.58-.1,8.08,8.08,0,0,1,2.06.23,3.22,3.22,0,0,1,1.35.72A2.84,2.84,0,0,1,93.62,41a5.89,5.89,0,0,1,.22,1.72v5.3a.7.7,0,0,1-.54.78" />
    <path class="cls-1" d="M103.67,49.22c-.56,0-1.1,0-1.64-.08a10.13,10.13,0,0,1-1.48-.25c-.13,0-.2-.1-.2-.22v-.58c0-.14.09-.2.26-.19.44.06.91.12,1.42.16s1,.07,1.58.07c1.56,0,2.34-.52,2.34-1.57a1.63,1.63,0,0,0-.32-1,2.44,2.44,0,0,0-1-.74l-2.11-.87a4.34,4.34,0,0,1-1.58-1,2.12,2.12,0,0,1-.54-1.5,2.16,2.16,0,0,1,.87-1.89,4.16,4.16,0,0,1,2.45-.61,11.13,11.13,0,0,1,1.44.09q.69.09,1.35.24.21.06.21.21V40c0,.16-.08.23-.25.19-.39-.07-.82-.12-1.29-.16s-.93,0-1.39,0a3,3,0,0,0-1.59.33,1.14,1.14,0,0,0-.52,1.06,1.26,1.26,0,0,0,.36.89,2.82,2.82,0,0,0,1,.66l2.11.87a4,4,0,0,1,1.56,1.12,2.53,2.53,0,0,1,.55,1.65,2.3,2.3,0,0,1-1,2,4.53,4.53,0,0,1-2.6.67" />
    <path class="cls-1" d="M118,38.87a4.39,4.39,0,0,1,3,.89,3.7,3.7,0,0,1,1,2.87v6.2c0,.15-.09.23-.26.23h-.77c-.17,0-.25-.08-.25-.23v-6.1a2.83,2.83,0,0,0-.69-2.12,3.51,3.51,0,0,0-2.41-.65,16.39,16.39,0,0,0-2.56.17v8.7c0,.15-.08.23-.25.23H114c-.16,0-.25-.08-.25-.23V35.15c0-.15.09-.23.25-.23h.78c.17,0,.25.08.25.23v4.19a6.58,6.58,0,0,1,1.36-.34,9.14,9.14,0,0,1,1.59-.13" />
    <path class="cls-2" d="M130.23,47.84a4.34,4.34,0,0,0,1,.22,8.92,8.92,0,0,0,1.16.07,3.82,3.82,0,0,0,2.87-1,4.13,4.13,0,0,0,1-3v-.44a3.64,3.64,0,0,0-1-2.86A4.15,4.15,0,0,0,132.5,40c-.42,0-.82,0-1.21,0a10.13,10.13,0,0,0-1.06.14Zm2.71-9a6,6,0,0,1,1.85.27,3.74,3.74,0,0,1,1.45.84,3.82,3.82,0,0,1,.95,1.46,5.7,5.7,0,0,1,.34,2.08v.72a6.61,6.61,0,0,1-.3,2.06,4,4,0,0,1-.93,1.57,4.15,4.15,0,0,1-1.57,1,6.37,6.37,0,0,1-2.21.35,12,12,0,0,1-1.55-.11,8.34,8.34,0,0,1-1.48-.32A.78.78,0,0,1,129,48V35.15c0-.15.08-.23.25-.23H130c.16,0,.25.08.25.23v4.17a5.25,5.25,0,0,1,1.23-.33,8.61,8.61,0,0,1,1.48-.12" />
    <path class="cls-2" d="M147.84,48.13c.48,0,1,0,1.43-.06a9.44,9.44,0,0,0,1.36-.21h0V44.51a9.34,9.34,0,0,0-1.37-.22,14.92,14.92,0,0,0-1.5-.07,4.41,4.41,0,0,0-2.31.45,1.68,1.68,0,0,0-.69,1.5,1.64,1.64,0,0,0,.72,1.52,4.79,4.79,0,0,0,2.38.44m3.51.7a12.64,12.64,0,0,1-1.69.28,17.58,17.58,0,0,1-1.9.11,8.88,8.88,0,0,1-2-.2,3.63,3.63,0,0,1-1.33-.57,2.12,2.12,0,0,1-.73-1,3.82,3.82,0,0,1-.22-1.33,2.7,2.7,0,0,1,1-2.29,4.5,4.5,0,0,1,2.79-.75c.28,0,.58,0,.88,0s.61.07.9.12l.85.17c.28.07.53.14.76.22v-.59a7,7,0,0,0-.13-1.49,2,2,0,0,0-.52-1,2.18,2.18,0,0,0-1-.52,8,8,0,0,0-1.71-.15c-.43,0-.87,0-1.32,0s-.86.09-1.24.16a.28.28,0,0,1-.18,0,.16.16,0,0,1-.09-.16v-.54q0-.15.18-.21A8.44,8.44,0,0,1,146,39a11.66,11.66,0,0,1,1.58-.1,8.08,8.08,0,0,1,2.06.23,3.16,3.16,0,0,1,1.35.72,2.76,2.76,0,0,1,.73,1.21,6.25,6.25,0,0,1,.22,1.72v5.3a.7.7,0,0,1-.54.78" />
    <path class="cls-2" d="M163.09,49.22a4.67,4.67,0,0,1-3.61-1.3,5.07,5.07,0,0,1-1.18-3.51v-.72a5.06,5.06,0,0,1,1.17-3.51,4.61,4.61,0,0,1,3.6-1.31,12.85,12.85,0,0,1,1.4.08,7.25,7.25,0,0,1,1.21.23.26.26,0,0,1,.22.27V40c0,.16-.09.23-.27.19-.39-.07-.79-.11-1.2-.15s-.8,0-1.19,0a3.66,3.66,0,0,0-2.77.94,4,4,0,0,0-.89,2.87v.56a4,4,0,0,0,.88,2.86,3.67,3.67,0,0,0,2.8.94c.42,0,.83,0,1.25-.05s.82-.08,1.21-.14c.18,0,.27,0,.27.19v.51a.26.26,0,0,1-.21.27,7.25,7.25,0,0,1-1.24.23,13.94,13.94,0,0,1-1.45.08" />
    <path class="cls-2" d="M175.22,43.77l5.42,5a.3.3,0,0,1,.09.21c0,.07-.08.1-.21.1h-1.06a.59.59,0,0,1-.43-.19l-5.34-4.94v4.9c0,.15-.09.23-.26.23h-.77c-.17,0-.25-.08-.25-.23V35.15c0-.15.08-.23.25-.23h.77c.17,0,.26.08.26.23v8.47l4.84-4.46a.49.49,0,0,1,.37-.13h1c.15,0,.22,0,.24.09a.26.26,0,0,1-.1.22Z" />
    <path class="cls-1" d="M19,9.52a1.69,1.69,0,0,0-1.57-.79H10c-.91,0-1,.79-.6,1.33l7.4,10.71H2.21A27.58,27.58,0,0,0,1,27.36H16.79l.12,0L9.4,38.71C9,39.25,9.1,40,10,40h7.37A1.69,1.69,0,0,0,19,39.25l9.15-14A2.08,2.08,0,0,0,28.49,24a2.13,2.13,0,0,0-.39-1.22Z" />
    <path class="cls-2" d="M56.39,36.9a28.1,28.1,0,0,0,1.08-6.59H41L48.43,19.6c.36-.55.3-1.33-.61-1.33H40.45a1.7,1.7,0,0,0-1.57.78L29.73,32.36a2.13,2.13,0,0,0-.39,1.22,2.08,2.08,0,0,0,.39,1.22l9.15,14a1.69,1.69,0,0,0,1.57.79h7.37c.91,0,1-.79.61-1.33l-7.5-11.37.11,0Z" />
</svg>