<svg id="Layer_1" data-name="Layer 1" xmlns="http://www.w3.org/2000/svg" xmlns:xlink="http://www.w3.org/1999/xlink" viewBox="0 0 135.89 133.71"><defs><style>.cls-1{fill:none;}.cls-2{fill:#009d39;}.cls-3{clip-path:url(#clip-path);}.cls-4{fill:#fff;}</style><clipPath id="clip-path"><rect class="cls-1" width="135.89" height="133.71"/></clipPath></defs><path class="cls-2" d="M102.84,46.34C92.86,27.73,73.63,14.67,51,14.67A58.94,58.94,0,0,0,16.47,25.81l8.11,10.6a50.52,50.52,0,0,1,78.26,9.93"/><g class="cls-3"><path class="cls-2" d="M18.29,85.47c4.22,18.6,12.6,32.23,32.89,42.18a58.93,58.93,0,0,0,35.94,5.22l-2.61-13.08a50.39,50.39,0,0,1-37.82-2.7c-16.39-8-21.35-16.57-28.4-31.62"/></g><path class="cls-2" d="M53.3,28.1C26.63,32.42,7.46,58.51,7.46,84.15a57.09,57.09,0,0,0,.46,7.32l7.38-.62A53,53,0,0,1,14,79.09c0-22.85,17.34-45.81,39.31-51"/><path class="cls-2" d="M72.62,14.16c23.52,5.12,40.57,26.36,40.57,51.42,0,5.07-.16,9.68-1.5,14.31A67.26,67.26,0,0,0,116,57.39,62.18,62.18,0,0,0,77.79,0L72.62,14.16"/><g class="cls-3"><path class="cls-2" d="M26.73,38.94C13.66,47.77,4.16,63.83,4.16,80.79a48.86,48.86,0,0,0,7.62,26.3L6.32,111.3A55.55,55.55,0,0,1,0,85.47c0-20,11-36.66,26.73-46.53"/></g><path class="cls-2" d="M54.74,115.39c26.19,6.62,54.68-5.8,67.64-33.36a46.83,46.83,0,0,0,2.49-6.91l-7-2.35a75.93,75.93,0,0,1-3.46,11.31c-8.23,23.06-37.42,35.27-59.64,31.31"/><g class="cls-3"><path class="cls-2" d="M96.75,116c13.08-8.83,34.54-29.35,34-51.61-.25-9.67-1-21-5.84-28.58l6.3-2.26c4,7.73,4.72,15.95,4.72,25.28,0,22.06-15.92,46.81-39.14,57.17"/></g><path class="cls-2" d="M99.25,72.65A34.44,34.44,0,1,1,64.81,38.21,34.44,34.44,0,0,1,99.25,72.65"/><path class="cls-4" d="M68.22,81.3a1.39,1.39,0,0,1-1.43-1.43V73.72a4.81,4.81,0,0,0-9.62,0v6.12a1.43,1.43,0,1,1-2.86,0V73.72a7.67,7.67,0,0,1,15.34,0v6.15a1.38,1.38,0,0,1-1.43,1.43"/><path class="cls-4" d="M84.81,81.3a1.38,1.38,0,0,1-1-.46L79,76l-4.78,4.85a1.44,1.44,0,0,1-1,.44,1.53,1.53,0,0,1-1.49-1.49,1.45,1.45,0,0,1,.44-1l5.38-5.46-4.88-4.94a1.45,1.45,0,0,1-.43-1,1.54,1.54,0,0,1,1.49-1.51,1.38,1.38,0,0,1,1,.47L79,70.69l4.24-4.32a1.46,1.46,0,0,1,1-.46,1.54,1.54,0,0,1,1.48,1.51,1.51,1.51,0,0,1-.41,1l0,0-4.91,4.94,5.44,5.46a1.44,1.44,0,0,1,.43,1,1.54,1.54,0,0,1-1.51,1.49"/><path class="cls-4" d="M51.17,81.3a1.39,1.39,0,0,1-1.45-1.43V67.63a1.39,1.39,0,0,1,1.43-1.43,1.37,1.37,0,0,1,1.43,1.43V79.87a1.36,1.36,0,0,1-1.41,1.43"/><path class="cls-4" d="M51.17,65.57a1.65,1.65,0,1,1,1.63-1.65,1.64,1.64,0,0,1-1.63,1.65"/><path class="cls-4" d="M46.57,81.3a1.38,1.38,0,0,1-1.43-1.43V63.46a1.43,1.43,0,0,1,2.86,0V79.87a1.38,1.38,0,0,1-1.43,1.43"/></svg>