<?xml version="1.0" encoding="UTF-8"?>
<svg width="220px" height="28px" viewBox="0 0 220 28" version="1.1" xmlns="http://www.w3.org/2000/svg" xmlns:xlink="http://www.w3.org/1999/xlink">
    <!-- Generator: Sketch 53.1 (72631) - https://sketchapp.com -->
    <title>Group 26 Copy 4</title>
    <desc>Created with Sketch.</desc>
    <defs>
        <polygon id="path-1" points="0.244050599 0.0644605757 19.2938242 0.0644605757 19.2938242 26.5536631 0.244050599 26.5536631"></polygon>
        <polygon id="path-3" points="0 27.229599 219.749534 27.229599 219.749534 0.290304881 0 0.290304881"></polygon>
    </defs>
    <g id="Page-1" stroke="none" stroke-width="1" fill="none" fill-rule="evenodd">
        <g id="Checkout-5" transform="translate(-930.000000, -617.000000)">
            <g id="Group-26-Copy-4" transform="translate(930.000000, 617.000000)">
                <g id="Group-25">
                    <path d="M10.7808788,11.9872861 L7.25003995,10.8208981 C4.82798935,10.067987 4.71227696,9.61705332 4.71227696,8.30519349 L4.71227696,7.33015469 C4.71227696,5.63617722 5.27707057,4.58593442 8.08521971,4.58593442 C9.41107856,4.58593442 11.2750732,4.79964155 13.2,5.17217722 L14.0679893,5.34029737 L14.1848735,1.01679299 L13.5547537,0.902099625 C11.5413582,0.53595194 9.34370173,0.290304881 8.08521971,0.290304881 C2.72026631,0.290304881 0,2.7598418 0,7.63038999 L0,8.04270538 C0,12.0357767 1.35193076,13.8885827 5.16516644,15.1203024 L9.06716378,16.3973186 C10.8992277,16.9800771 11.194514,17.6055189 11.194514,18.8770183 L11.194514,20.1136741 C11.194514,21.5024801 10.8523569,22.8578944 6.76141145,22.8578944 C5.46279627,22.8578944 3.42332889,22.5718869 1.56577896,22.128793 L0.666151798,21.9142148 L0.552197071,26.3277317 L1.15243675,26.4612986 C3.24990679,26.9282023 5.48095872,27.229599 6.83757656,27.229599 C12.9401598,27.229599 15.9070839,24.8158118 15.9070839,19.851186 L15.9070839,19.1395064 C15.9070839,15.1746003 14.5185353,13.2355564 10.7808788,11.9872861" id="Fill-1" fill="#2B4560"></path>
                    <path d="M23.6434967,16.7475254 L26.4282104,7.1132826 L29.1853875,16.7475254 L23.6434967,16.7475254 Z M23.9484501,0.73981577 L15.9267989,26.7795655 L20.7949214,26.7795655 L22.4216325,21.0814829 L30.4043222,21.0814829 L32.0307403,26.7795655 L37.0889827,26.7795655 L29.0271984,0.73981577 L23.9484501,0.73981577 Z" id="Fill-3" fill="#2B4560"></path>
                    <g id="Group-7" transform="translate(38.375499, 0.225844)">
                        <mask id="mask-2" fill="white">
                            <use xlink:href="#path-1"></use>
                        </mask>
                        <g id="Clip-6"></g>
                        <path d="M4.95808522,4.31650663 C5.85331824,4.27091965 6.84551531,4.24769061 7.49877763,4.24769061 C11.7276991,4.24769061 12.3106551,5.80113242 12.3106551,7.47972065 L12.3106551,8.2294378 C12.3106551,9.79362303 11.8237843,11.8732025 7.61273236,11.8732025 C6.72863116,11.8732025 6.08064181,11.8447469 4.95808522,11.7492175 L4.95808522,4.31650663 Z M17.023225,8.30377071 L17.023225,7.36676946 C17.023225,4.03514493 15.3836245,0.0644315394 7.57494274,0.0644315394 L7.57406391,0.0644315394 C5.88378429,0.0644315394 4.11411718,0.132666834 2.40274567,0.198579224 L0.244050599,0.277557947 L0.244050599,26.5536631 L4.95808522,26.5536631 L4.95808522,15.8816631 C6.07038881,15.9417682 7.20612783,15.9606418 7.98271904,15.9330573 L13.9824794,26.5536631 L19.2938242,26.5536631 L12.6703888,14.8900736 C15.4132117,13.7416881 17.023225,11.3374829 17.023225,8.30377071 L17.023225,8.30377071 Z" id="Fill-5" fill="#2B4560" mask="url(#mask-2)"></path>
                    </g>
                    <path d="M66.4909427,23.0081862 C65.7500905,23.0081862 64.8788788,22.9594053 63.7220479,22.8528421 L63.7220479,4.54313492 C64.6231398,4.49667685 65.5517683,4.47344781 66.4909427,4.47344781 C70.1582929,4.47344781 72.0961092,6.60238899 72.0961092,10.6297232 L72.0961092,17.2650974 C72.0961092,20.9146693 70.0528336,23.0081862 66.4909427,23.0081862 M66.6807696,0.290479099 C63.9625539,0.290479099 61.7329667,0.38891214 60.1042051,0.461502879 L59.009771,0.509412766 L59.009771,26.9579935 L59.71049,27.0027094 C61.9011158,27.1426643 63.7993848,27.2294829 66.4909427,27.2294829 C73.1448442,27.2294829 76.8086791,23.5973327 76.8086791,17.0026093 L76.8086791,10.8544641 C76.8086791,4.14069186 73.1170146,0.290479099 66.6807696,0.290479099" id="Fill-8" fill="#2B4560"></path>
                    <polygon id="Fill-10" fill="#2B4560" points="80.5705033 26.7795074 95.1171611 26.7795074 95.1171611 22.4083835 85.2827803 22.4083835 85.2827803 15.7204536 94.3610759 15.7204536 94.3610759 11.3864961 85.2827803 11.3864961 85.2827803 5.11117196 95.1171611 5.11117196 95.1171611 0.739757697 80.5705033 0.739757697"></polygon>
                    <polygon id="Fill-12" fill="#2B4560" points="109.637923 13.4392461 116.786897 0.739931915 111.514514 0.739931915 106.775579 9.30970413 102.036937 0.739931915 96.4484687 0.739931915 103.682397 13.3660746 95.9949933 26.7793912 101.432889 26.7793912 106.510759 17.5420746 111.587457 26.7793912 117.208442 26.7793912"></polygon>
                    <path d="M146.608205,19.5141907 C146.608205,21.8074773 144.951028,22.970381 141.683545,22.970381 C140.604344,22.970381 140.203598,22.9457001 138.726288,22.8109717 L138.726288,15.6079379 L141.910282,15.6079379 C146.074463,15.6079379 146.608205,17.275202 146.608205,18.7270168 L146.608205,19.5141907 Z M138.726288,4.57733967 C139.507273,4.53378523 140.244317,4.51113692 140.927459,4.51113692 C145.033052,4.51113692 145.585835,6.03118698 145.585835,7.51784531 L145.585835,8.15490163 C145.585835,10.3985362 144.27228,11.5364686 141.683545,11.5364686 L138.726288,11.5364686 L138.726288,4.57733967 Z M147.863172,13.1122683 C149.463225,11.9084235 150.298405,10.1194974 150.298405,7.8549567 L150.298405,7.03090663 C150.298405,2.80990038 146.978192,0.290421026 141.419017,0.290421026 C138.556674,0.290421026 136.229537,0.375787735 134.729084,0.440538673 L134.012253,0.471026783 L134.012253,26.967227 L134.723225,27.0035224 C138.423678,27.1925487 139.350842,27.2294248 141.683545,27.2294248 C147.807513,27.2294248 151.320775,24.4860756 151.320775,19.7017652 L151.320775,18.8771344 C151.320775,16.2133447 150.056727,14.1532195 147.863172,13.1122683 L147.863172,13.1122683 Z" id="Fill-14" fill="#2B4560"></path>
                    <mask id="mask-4" fill="white">
                        <use xlink:href="#path-3"></use>
                    </mask>
                    <g id="Clip-17"></g>
                    <polygon id="Fill-16" fill="#2B4560" mask="url(#mask-4)" points="153.947563 26.7795364 158.661598 26.7795364 158.661598 8.88998448 153.947563 8.88998448"></polygon>
                    <path d="M172.446399,11.9872861 L168.915561,10.8208981 C166.493803,10.067987 166.378091,9.61705332 166.378091,8.30519349 L166.378091,7.33015469 C166.378091,5.63617722 166.942591,4.58593442 169.75074,4.58593442 C171.077185,4.58593442 172.940594,4.79964155 174.865521,5.17217722 L175.734389,5.34029737 L175.851273,1.01679299 L175.219395,0.902099625 C173.206879,0.53595194 171.008636,0.290304881 169.75074,0.290304881 C164.385787,0.290304881 161.665521,2.7598418 161.665521,7.63038999 L161.665521,8.04270538 C161.665521,12.0357767 163.01833,13.8885827 166.829808,15.1203024 L170.733563,16.3973186 C172.564748,16.9800771 172.860328,17.6055189 172.860328,18.8770183 L172.860328,20.1136741 C172.860328,21.5024801 172.517877,22.8578944 168.426932,22.8578944 C167.128317,22.8578944 165.089728,22.5718869 163.232178,22.128793 L162.331087,21.9142148 L162.216839,26.3277317 L162.81825,26.4612986 C164.915427,26.9282023 167.147358,27.229599 168.503097,27.229599 C174.606559,27.229599 177.572605,24.8158118 177.572605,19.851186 L177.572605,19.1395064 C177.572605,15.1746003 176.183177,13.2355564 172.446399,11.9872861" id="Fill-18" fill="#2B4560" mask="url(#mask-4)"></path>
                    <path d="M181.951015,10.0179865 L182.78473,10.0179865 C183.848991,10.0179865 184.719031,10.8794934 184.723425,11.9338013 L184.723425,8.71745081 C184.723425,5.93693517 186.122812,4.58587635 189.004197,4.58587635 C191.885582,4.58587635 193.286727,5.94942078 193.286727,8.755198 L193.286727,8.64718298 C193.286727,7.5896811 194.159989,6.72410914 195.226887,6.72410914 L196.060602,6.72410914 C197.038738,6.72410914 197.820602,7.46221176 197.949497,8.39805156 C197.695808,3.10850964 194.637193,0.290537171 189.004197,0.290537171 C183.120149,0.290537171 180.010855,3.33383129 180.010855,9.09230939 L180.010855,11.9410603 C180.010855,10.8832681 180.883824,10.0179865 181.951015,10.0179865" id="Fill-19" fill="#9DB9C9" mask="url(#mask-4)"></path>
                    <path d="M215.036935,18.7647349 C215.036935,21.5699314 213.637254,22.9331855 210.75587,22.9331855 C207.874778,22.9331855 206.473632,21.5699314 206.473632,18.7647349 L206.473632,8.71759599 C206.473632,5.93708035 207.874778,4.58573116 210.75587,4.58573116 C213.637254,4.58573116 215.036935,5.94927559 215.036935,8.75505282 L215.036935,18.7647349 Z M210.75587,0.29039199 C204.872115,0.29039199 201.761063,3.33397647 201.761063,9.09216421 L201.761063,18.4270428 C201.761063,24.1858113 204.872115,27.2293957 210.75587,27.2293957 C216.639917,27.2293957 219.749505,24.1858113 219.749505,18.4270428 L219.749505,9.09216421 C219.749505,3.33397647 216.639917,0.29039199 210.75587,0.29039199 L210.75587,0.29039199 Z" id="Fill-20" fill="#9DB9C9" mask="url(#mask-4)"></path>
                    <path d="M156.721321,0.739844806 L155.887606,0.739844806 C154.820708,0.739844806 153.947446,1.60512641 153.947446,2.66291865 L153.947446,3.97710138 C153.947446,5.03489362 154.820708,5.90017522 155.887606,5.90017522 L156.721321,5.90017522 C157.788511,5.90017522 158.661481,5.03489362 158.661481,3.97710138 L158.661481,2.66291865 C158.661481,1.60512641 157.788511,0.739844806 156.721321,0.739844806" id="Fill-21" fill="#2B4560" mask="url(#mask-4)"></path>
                    <path d="M184.724802,11.9409442 C184.724802,11.9383309 184.723337,11.9362984 184.723337,11.9339755 L184.723337,13.2626763 C184.723337,13.2600631 184.724802,13.2580305 184.724802,13.2554173 L184.724802,11.9409442 Z" id="Fill-22" fill="#FEFEFE" mask="url(#mask-4)"></path>
                    <path d="M197.999356,9.09230939 L197.999356,9.96891514 C197.999356,9.96630188 198.00082,9.96426934 198.00082,9.96165607 L198.00082,8.64718298 C198.00082,8.559203 197.961273,8.48341827 197.949555,8.39805156 C197.96098,8.63411665 197.999356,8.84637196 197.999356,9.09230939" id="Fill-23" fill="#FEFEFE" mask="url(#mask-4)"></path>
                    <path d="M197.949555,8.39816771 C197.82066,7.46232791 197.038796,6.72422528 196.06066,6.72422528 L195.226945,6.72422528 C194.159755,6.72422528 193.286786,7.58950688 193.286786,8.64729912 L193.286786,8.75502378 L193.286786,9.96177222 L193.286786,18.7647059 C193.286786,21.5699024 191.88564,22.9334468 189.004256,22.9334468 C186.122871,22.9334468 184.723483,21.5699024 184.723483,18.7647059 L184.723483,13.2626183 L184.723483,11.9339174 C184.719089,10.8796095 183.849049,10.0181026 182.784495,10.0181026 L181.951073,10.0181026 C180.883883,10.0181026 180.010913,10.8833842 180.010913,11.9408861 L180.010913,13.2553592 L180.010913,18.4270138 C180.010913,24.1857822 183.120208,27.2293667 189.004256,27.2293667 C194.888304,27.2293667 197.999356,24.1857822 197.999356,18.4270138 L197.999356,9.96874093 L197.999356,9.09242553 C197.999356,8.84619775 197.96098,8.63423279 197.949555,8.39816771" id="Fill-24" fill="#2B4560" mask="url(#mask-4)"></path>
                </g>
            </g>
        </g>
    </g>
</svg>