<svg id="Livello_1" data-name="Livello 1" xmlns="http://www.w3.org/2000/svg" viewBox="0 0 200 200"><defs><style>.cls-1{fill:#a7aaad;}</style></defs><path class="cls-1" d="M195,83.87H148.39L178,40.72c.61-1.95-.09-4-3-4H145.25a6.88,6.88,0,0,0-6.33,3.17l-36.87,55a8.49,8.49,0,0,0,0,9.84l36.87,55a6.88,6.88,0,0,0,6.34,3.16H175c3,0,3.68-2.13,3-4.1l-25.84-39.55-2.33-3.53H195a5,5,0,0,0,5-5V88.87A5,5,0,0,0,195,83.87Z"/><path class="cls-1" d="M5.83,115.75H52.45L22.8,158.91c-.61,2,.09,4,3.05,4H55.58a6.88,6.88,0,0,0,6.34-3.16l36.87-55a8.47,8.47,0,0,0,0-9.84l-36.86-55a6.89,6.89,0,0,0-6.34-3.17H25.85c-3,0-3.68,2.13-3,4.11L48.67,80.35,51,83.87H5.83a5,5,0,0,0-5,5v21.89A5,5,0,0,0,5.83,115.75Z"/></svg>